# xmcd CD database file
#
# Track frame offsets:
#	150
#	10465
#	30459
#	55965
#	78287
#	96194
#	119815
#	136711
#	150627
#	160492
#	193527
#	217211
#	234816
#	258572
#	262138
#	276382
#	301118
#
# Disc length: 4296 seconds
#
# Revision: 1
# Processed by: cddbd v1.5.1PL2 Copyright (c) Steve Scherf et al.
# Submitted via: CDex 1.51
#
DISCID=f010c611
DTITLE=Roger and The Evolution - live at Yorckschloesschen
DYEAR=2005
DGENRE=Jazz
TTITLE0=Five Months, Two Weeks, Two Days
TTITLE1=Yorckschloesschen Boogie Woogie
TTITLE2=Blue And Broken Hearted
TTITLE3=Lester Leaps In
TTITLE4=Them There Eyes/ Honeysuckle Rose
TTITLE5=Burgundy Street Blues
TTITLE6=Jump, Jive 'n' Wail
TTITLE7=Minnie The Moocher
TTITLE8=Oh Marie
TTITLE9=Tenderly
TTITLE10=Kansas City
TTITLE11='s Wonderful
TTITLE12=Mardi Gras In New Orleans
TTITLE13=Piano Intro Buona Sera
TTITLE14=Buona Sera
TTITLE15=Honky Tonk Train Blues
TTITLE16=Angelina
EXTD=YEAR: 2005
EXTT0=
EXTT1=
EXTT2=
EXTT3=
EXTT4=
EXTT5=
EXTT6=
EXTT7=
EXTT8=
EXTT9=
EXTT10=
EXTT11=
EXTT12=
EXTT13=
EXTT14=
EXTT15=
EXTT16=
PLAYORDER=
